<svg width="32" height="32" viewBox="0 0 32 32" fill="none" xmlns="http://www.w3.org/2000/svg">
  <rect width="32" height="32" rx="8" fill="black"/>
  <ellipse cx="16" cy="16" rx="13" ry="13" fill="url(#glow)"/>
  <defs>
    <radialGradient id="glow" cx="0.5" cy="0.5" r="0.5" fx="0.5" fy="0.5" gradientUnits="objectBoundingBox">
      <stop offset="0%" stop-color="#FFD700" stop-opacity="0.7"/>
      <stop offset="100%" stop-color="#FFD700" stop-opacity="0"/>
    </radialGradient>
  </defs>
  <path d="M20 16c0 4.418-3.582 8-8 8a8 8 0 1 1 0-16c0.552 0 1 .448 1 1s-.448 1-1 1a6 6 0 1 0 0 12c3.314 0 6-2.686 6-6 0-.552.448-1 1-1s1 .448 1 1z" fill="white"/>
  <circle cx="21" cy="12" r="1.2" fill="white"/>
  <circle cx="18" cy="15" r="0.8" fill="white"/>
  <circle cx="22" cy="17" r="0.7" fill="white"/>
  <circle cx="19" cy="19" r="0.6" fill="white"/>
  <circle cx="16" cy="13" r="1" fill="white"/>
</svg>
